<svg width="50" height="51" viewBox="0 0 50 51" fill="none" xmlns="http://www.w3.org/2000/svg">
<rect y="0.5" width="50" height="50" rx="25" fill="#CBD1BF" fill-opacity="0.6"/>
<path d="M18.4563 26.6375L26.3219 34.7161C26.643 35.0459 26.7971 35.4306 26.7842 35.8702C26.7714 36.3099 26.6039 36.6946 26.2818 37.0243C25.9607 37.3266 25.5862 37.4848 25.1581 37.4991C24.7301 37.5134 24.3555 37.3551 24.0345 37.0243L13.4399 26.1429C13.2794 25.9781 13.1654 25.7994 13.098 25.6071C13.0306 25.4148 12.998 25.2087 13.0001 24.9888C13.0022 24.769 13.0359 24.5629 13.1012 24.3706C13.1665 24.1782 13.2799 23.9996 13.4415 23.8348L24.0361 12.9534C24.3304 12.6511 24.6985 12.5 25.1405 12.5C25.5824 12.5 25.9634 12.6511 26.2834 12.9534C26.6044 13.2831 26.765 13.675 26.765 14.1289C26.765 14.5828 26.6044 14.9741 26.2834 15.3028L18.4563 23.3401H36.3948C36.8496 23.3401 37.2311 23.4984 37.5393 23.815C37.8475 24.1315 38.0011 24.5228 38 24.9888C37.9989 25.4549 37.8448 25.8467 37.5377 26.1644C37.2306 26.482 36.8496 26.6397 36.3948 26.6375H18.4563Z" fill="white" fill-opacity="0.7"/>
</svg>
