<svg width="50" height="51" viewBox="0 0 50 51" fill="none" xmlns="http://www.w3.org/2000/svg">
<rect width="50" height="50" rx="25" transform="matrix(-1 0 0 1 50 0.5)" fill="#CBD1BF" fill-opacity="0.6"/>
<path d="M31.5437 26.6375L23.6781 34.7161C23.357 35.0459 23.2029 35.4306 23.2158 35.8702C23.2286 36.3099 23.3961 36.6946 23.7182 37.0243C24.0393 37.3266 24.4138 37.4848 24.8419 37.4991C25.2699 37.5134 25.6445 37.3551 25.9655 37.0243L36.5601 26.1429C36.7206 25.9781 36.8346 25.7994 36.902 25.6071C36.9694 25.4148 37.002 25.2087 36.9999 24.9888C36.9978 24.769 36.9641 24.5629 36.8988 24.3706C36.8335 24.1782 36.7201 23.9996 36.5585 23.8348L25.9639 12.9534C25.6696 12.6511 25.3015 12.5 24.8595 12.5C24.4176 12.5 24.0366 12.6511 23.7166 12.9534C23.3956 13.2831 23.235 13.675 23.235 14.1289C23.235 14.5828 23.3956 14.9741 23.7166 15.3028L31.5437 23.3401H13.6052C13.1504 23.3401 12.7689 23.4984 12.4607 23.815C12.1525 24.1315 11.9989 24.5228 12 24.9888C12.0011 25.4549 12.1552 25.8467 12.4623 26.1644C12.7694 26.482 13.1504 26.6397 13.6052 26.6375H31.5437Z" fill="white" fill-opacity="0.7"/>
</svg>
